<svg width="256" height="256" viewBox="0 0 256 256" fill="none" xmlns="http://www.w3.org/2000/svg">
  <defs>
    <linearGradient id="faviconBlue" x1="62" y1="28" x2="162" y2="228" gradientUnits="userSpaceOnUse">
      <stop stop-color="#0C5BA8"/>
      <stop offset="1" stop-color="#0B4D96"/>
    </linearGradient>
    <linearGradient id="faviconTeal" x1="140" y1="90" x2="200" y2="210" gradientUnits="userSpaceOnUse">
      <stop stop-color="#00AFA1"/>
      <stop offset="1" stop-color="#00947E"/>
    </linearGradient>
  </defs>
  <path d="M74 36c-11 0-20 9-20 20v116c0 32.5 26.5 59 59 59h10c32.5 0 59-26.5 59-59V98h-28v74c0 16.6-13.4 30-30 30h-6c-16.6 0-30-13.4-30-30V56c0-11-9-20-20-20H74Z" fill="url(#faviconBlue)"/>
  <path d="M144 40l60 60h-34v72h-26v-60h-28l28-72Z" fill="url(#faviconTeal)"/>
</svg>
